# xmcd
#
# Track frame offsets:
#	150
#	11991
#	24807
#	37639
#	49330
#	59896
#	73054
#	84611
#	96143
#	108032
#	121901
#	132446
#
# Disc length: 1950 seconds
#
# Revision: 0
# Processed by: cddbd v1.5.2PL0 Copyright (c) Steve Scherf et al.
# Submitted via: audiograbber 1.83.01
#
DISCID=9d079c0c
DTITLE=Charley Pride - The Country Way
DYEAR=1900
DGENRE=Country
TTITLE0=Too Hard To Say I'm Sorry
TTITLE1=The Little Folks
TTITLE2=Crystal Chandelier
TTITLE3=Act Naturally
TTITLE4=Does My Ring Hurt Your Finger?
TTITLE5=Mama, Don't Cry For Me
TTITLE6=The Day The World Stood Still
TTITLE7=Gone, On The Other Hand
TTITLE8=You Can Tell The World
TTITLE9=I'll Wander Back To You
TTITLE10=Life Turned Her That Way
TTITLE11=I Threw Away The Rose
EXTD=
EXTT0=
EXTT1=
EXTT2=
EXTT3=
EXTT4=
EXTT5=
EXTT6=
EXTT7=
EXTT8=
EXTT9=
EXTT10=
EXTT11=
PLAYORDER=
